<svg version="1.1" id="Layer_1" xmlns="http://www.w3.org/2000/svg" xmlns:xlink="http://www.w3.org/1999/xlink" x="0px" y="0px"
	 width="100%" viewBox="0 0 598 476" enable-background="new 0 0 598 476" xml:space="preserve">
<path fill="#0F0317" opacity="1.000000" stroke="none" 
	d="
M1.000000,476.000000 
	C1.000000,317.710144 1.000000,159.420288 1.000000,1.065217 
	C200.235107,1.065217 399.470245,1.065217 599.000000,1.065217 
	C599.000000,159.024780 599.000000,317.049744 598.538757,475.537476 
	C399.051666,476.000183 200.025833,476.000092 1.000000,476.000000 
M185.223099,267.026520 
	C185.038574,267.877655 184.854034,268.728821 184.170898,270.098694 
	C182.169327,279.433960 180.167755,288.769196 178.004532,298.858398 
	C186.446609,298.858398 194.024216,298.858429 201.601837,298.858429 
	C210.275650,298.858429 210.418198,298.885223 212.058411,290.171295 
	C213.027420,285.023224 213.459854,279.774139 214.893402,273.926086 
	C214.894775,273.283569 214.896149,272.641022 215.126724,271.265381 
	C215.416061,269.816071 215.705399,268.366760 216.355820,266.369354 
	C216.902573,264.926239 217.449326,263.483154 218.928726,261.931244 
	C233.200272,261.627747 247.528885,262.012543 261.728027,260.835632 
	C277.293396,259.545441 290.321930,252.882248 298.873169,238.134323 
	C300.998932,232.659973 303.124725,227.185623 305.802246,221.152939 
	C306.446167,218.072418 307.090088,214.991898 308.057892,211.624603 
	C308.042969,211.081497 308.028015,210.538391 308.323364,209.412766 
	C308.306885,208.981003 308.290375,208.549225 308.662659,207.493164 
	C308.731110,203.664917 308.799561,199.836670 309.058777,195.213028 
	C308.406555,192.465775 307.754333,189.718506 307.113037,186.230164 
	C304.667786,179.142288 299.689575,174.315094 292.821320,171.908707 
	C287.708344,170.117355 282.226593,168.501053 276.880493,168.405518 
	C254.282364,168.001724 231.673386,168.160324 209.069107,168.267899 
	C207.804123,168.273911 205.660706,169.456421 205.428833,170.444107 
	C203.993866,176.556763 202.989456,182.770493 201.403854,189.589935 
	C201.373901,190.097702 201.343964,190.605469 200.934769,191.484619 
	C200.947968,191.988464 200.961166,192.492310 200.520767,193.675720 
	C200.424118,194.475143 200.327484,195.274582 199.873886,196.349564 
	C199.935822,196.889252 199.997742,197.428955 199.927368,198.640411 
	C198.962067,202.427063 197.996765,206.213730 196.782700,210.718826 
	C196.159042,214.145004 195.535385,217.571167 194.741730,221.681061 
	C193.801453,226.127106 192.861160,230.573166 191.790268,235.839676 
	C190.137726,244.206070 188.485184,252.572479 186.124283,261.282532 
	C186.090057,262.561890 186.055817,263.841248 185.785309,265.437103 
	C185.840698,265.792877 185.896072,266.148621 185.223099,267.026520 
M190.063385,191.010132 
	C184.736938,179.343781 186.105072,167.728485 190.844406,155.211258 
	C189.060684,156.876953 188.014038,157.854340 186.270523,158.947876 
	C178.107468,165.655655 171.381866,173.576096 167.110474,183.267212 
	C159.103210,201.434402 168.591324,220.508392 188.755249,225.905914 
	C189.722534,220.562912 190.682587,215.259827 192.086197,209.352234 
	C193.762589,203.229797 196.027878,197.041458 190.063385,191.010132 
M237.411591,272.976379 
	C236.823425,277.834137 235.508514,282.739868 235.825302,287.537872 
	C236.251511,293.993225 240.560760,297.621613 247.238480,298.818207 
	C255.721848,300.338318 262.848541,298.040070 265.957886,292.781464 
	C270.127838,285.729279 268.500885,273.424988 262.863800,269.381561 
	C256.298248,264.672150 243.327682,266.206970 237.411591,272.976379 
M395.234100,289.908112 
	C391.931061,293.104065 388.026123,293.526031 384.257050,291.350769 
	C379.934509,288.856110 380.026917,284.226715 380.924988,280.205963 
	C381.451996,277.846588 383.549561,274.622681 385.547546,274.097900 
	C388.396881,273.349365 393.098022,273.593567 394.693573,275.427490 
	C397.736053,278.924438 400.615448,277.894135 403.914978,277.689301 
	C403.389618,269.440460 397.354797,265.936310 385.494690,266.710236 
	C376.015961,267.328766 371.437622,273.691437 372.221741,285.156097 
	C372.901123,295.089569 379.197418,299.890808 390.655151,299.212463 
	C399.848663,298.668121 404.245758,294.955261 403.724152,286.978394 
	C400.919403,287.768097 398.300232,288.505585 395.234100,289.908112 
M345.815552,267.106354 
	C341.707336,277.338715 337.599152,287.571045 333.224396,298.467316 
	C337.864746,298.405975 341.746735,300.305969 343.444000,294.682220 
	C344.275238,291.927979 355.184052,292.058533 356.095154,294.817169 
	C357.905243,300.297852 361.632874,298.603821 365.879120,298.183502 
	C362.701508,289.731537 359.272644,281.818390 356.799744,273.617004 
	C355.099915,267.979584 352.245697,265.639526 345.815552,267.106354 
M324.206757,212.887207 
	C321.950836,213.461182 319.694611,214.033951 317.439056,214.609360 
	C311.185089,216.204758 310.196167,217.625763 310.738495,224.843872 
	C339.720703,216.203552 367.407013,205.311981 390.907562,185.579788 
	C369.696472,196.500168 348.116730,206.494568 324.206757,212.887207 
M287.816559,290.368195 
	C287.816559,292.981323 287.816559,295.594452 287.816559,298.372742 
	C290.851776,298.372742 293.264130,298.372742 296.024597,298.372742 
	C296.024597,290.167969 296.024597,282.231110 296.024597,273.939667 
	C299.435944,273.786438 302.518219,273.648010 305.760742,273.502380 
	C305.760742,271.160706 305.760742,269.216003 305.760742,267.090942 
	C296.500305,267.090942 287.453400,267.090942 278.244965,267.090942 
	C278.244965,269.319794 278.244965,271.236725 278.244965,273.423309 
	C281.535583,273.633698 284.589447,273.828979 287.816193,274.035278 
	C287.816193,279.443542 287.816193,284.423187 287.816559,290.368195 
M322.103516,298.604248 
	C322.665833,297.912079 323.710175,297.225250 323.717896,296.527008 
	C323.825104,286.786041 323.790497,277.043579 323.790497,267.235870 
	C320.790833,267.235870 318.270996,267.235870 315.522797,267.235870 
	C315.522797,272.823517 315.522797,277.958496 315.522797,283.093475 
	C315.522797,288.167206 315.522797,293.240967 315.522797,298.639618 
	C317.970154,298.639618 319.610535,298.639618 322.103516,298.604248 
z"/>
<path fill="#D1D1D1" opacity="1.000000" stroke="none" 
	d="
M1.000000,476.500000 
	C200.025833,476.000092 399.051666,476.000183 598.538757,476.000122 
	C598.833313,476.333344 598.684082,476.943756 598.497192,476.955505 
	C597.169128,477.038940 595.833313,477.000000 594.500000,477.000000 
	C396.666656,477.000000 198.833328,477.000000 1.000000,476.500000 
z"/>
<path fill="#CD94F1" opacity="1.000000" stroke="none" 
	d="
M298.299835,238.546814 
	C290.321930,252.882248 277.293396,259.545441 261.728027,260.835632 
	C247.528885,262.012543 233.200272,261.627747 218.169205,261.967255 
	C216.957626,262.347321 216.505585,262.691345 215.581635,263.023987 
	C207.625198,263.006622 200.136200,263.139404 192.659058,262.900879 
	C190.698044,262.838318 188.773788,261.624176 186.832642,260.938873 
	C188.485184,252.572479 190.137726,244.206070 192.329346,235.422302 
	C203.231323,235.066864 213.594238,235.128769 224.428558,235.202209 
	C237.258011,235.102371 249.616043,234.991028 262.087158,235.270691 
	C263.842804,236.104080 265.479980,236.904205 267.128784,236.928970 
	C275.712646,237.057846 284.301086,236.901657 292.883942,237.060211 
	C294.697784,237.093735 296.494965,238.027725 298.299835,238.546814 
z"/>
<path fill="#A948E5" opacity="1.000000" stroke="none" 
	d="
M201.842072,188.950653 
	C202.989456,182.770493 203.993866,176.556763 205.428833,170.444107 
	C205.660706,169.456421 207.804123,168.273911 209.069107,168.267899 
	C231.673386,168.160324 254.282364,168.001724 276.880493,168.405518 
	C282.226593,168.501053 287.708344,170.117355 292.821320,171.908707 
	C299.689575,174.315094 304.667786,179.142288 306.631989,186.609222 
	C273.670837,186.991577 241.190567,186.955505 208.710922,187.082169 
	C206.418915,187.091110 204.131577,188.299835 201.842072,188.950653 
z"/>
<path fill="#AF53E7" opacity="1.000000" stroke="none" 
	d="
M201.622955,189.270294 
	C204.131577,188.299835 206.418915,187.091110 208.710922,187.082169 
	C241.190567,186.955505 273.670837,186.991577 306.626526,186.979767 
	C307.754333,189.718506 308.406555,192.465775 308.503815,195.611420 
	C298.717560,196.006668 289.483063,195.876373 280.257690,196.108185 
	C278.424164,196.154251 276.625488,197.587509 274.500183,198.200531 
	C271.043610,196.823471 267.939850,194.749252 264.743591,194.595184 
	C255.187164,194.134583 245.591507,194.305328 236.018967,194.543106 
	C234.439758,194.582336 232.899826,196.201752 230.852158,197.067505 
	C220.587891,197.035843 210.813187,197.027603 200.943665,196.829529 
	C200.698425,196.390411 200.492432,196.201843 200.230835,196.074005 
	C200.327484,195.274582 200.424118,194.475143 200.925842,193.239594 
	C201.325302,192.240051 201.319672,191.676651 201.314026,191.113235 
	C201.343964,190.605469 201.373901,190.097702 201.622955,189.270294 
z"/>
<path fill="#8B1BD0" opacity="1.000000" stroke="none" 
	d="
M191.642639,209.956757 
	C190.682587,215.259827 189.722534,220.562912 188.755249,225.905914 
	C168.591324,220.508392 159.103210,201.434402 167.110474,183.267212 
	C171.381866,173.576096 178.107468,165.655655 186.525635,159.233185 
	C185.065430,162.345062 183.217316,165.100571 181.659805,168.011566 
	C177.054901,176.618179 174.803833,185.507492 179.018036,195.360504 
	C180.682327,198.180695 182.294205,200.651215 184.078979,203.402222 
	C186.484940,205.488480 188.717987,207.294235 191.046295,209.257446 
	C191.317261,209.587479 191.484299,209.768097 191.642639,209.956757 
z"/>
<path fill="#EDECEE" opacity="1.000000" stroke="none" 
	d="
M237.602661,272.662231 
	C243.327682,266.206970 256.298248,264.672150 262.863800,269.381561 
	C268.500885,273.424988 270.127838,285.729279 265.957886,292.781464 
	C262.848541,298.040070 255.721848,300.338318 247.238480,298.818207 
	C240.560760,297.621613 236.251511,293.993225 235.825302,287.537872 
	C235.508514,282.739868 236.823425,277.834137 237.602661,272.662231 
M259.745941,285.011108 
	C259.900757,280.468018 260.374451,275.636322 254.822464,273.761230 
	C247.845108,271.404816 243.247879,275.645355 243.668701,283.782623 
	C243.945877,289.141846 246.232574,291.972504 250.741135,292.537445 
	C255.213074,293.097839 257.978546,291.003326 259.745941,285.011108 
z"/>
<path fill="#EDECEE" opacity="1.000000" stroke="none" 
	d="
M395.457581,289.575592 
	C398.300232,288.505585 400.919403,287.768097 403.724152,286.978394 
	C404.245758,294.955261 399.848663,298.668121 390.655151,299.212463 
	C379.197418,299.890808 372.901123,295.089569 372.221741,285.156097 
	C371.437622,273.691437 376.015961,267.328766 385.494690,266.710236 
	C397.354797,265.936310 403.389618,269.440460 403.914978,277.689301 
	C400.615448,277.894135 397.736053,278.924438 394.693573,275.427490 
	C393.098022,273.593567 388.396881,273.349365 385.547546,274.097900 
	C383.549561,274.622681 381.451996,277.846588 380.924988,280.205963 
	C380.026917,284.226715 379.934509,288.856110 384.257050,291.350769 
	C388.026123,293.526031 391.931061,293.104065 395.457581,289.575592 
z"/>
<path fill="#C180EA" opacity="1.000000" stroke="none" 
	d="
M298.586487,238.340576 
	C296.494965,238.027725 294.697784,237.093735 292.883942,237.060211 
	C284.301086,236.901657 275.712646,237.057846 267.128784,236.928970 
	C265.479980,236.904205 263.842804,236.104080 262.308105,235.015976 
	C270.061798,231.565384 272.428589,224.658554 275.532593,217.939468 
	C284.498932,217.626556 293.064087,217.197662 301.618896,217.350418 
	C302.854980,217.372498 304.041199,220.188293 305.250488,221.711273 
	C303.124725,227.185623 300.998932,232.659973 298.586487,238.340576 
z"/>
<path fill="#EDECEE" opacity="1.000000" stroke="none" 
	d="
M346.171936,266.983765 
	C352.245697,265.639526 355.099915,267.979584 356.799744,273.617004 
	C359.272644,281.818390 362.701508,289.731537 365.879120,298.183502 
	C361.632874,298.603821 357.905243,300.297852 356.095154,294.817169 
	C355.184052,292.058533 344.275238,291.927979 343.444000,294.682220 
	C341.746735,300.305969 337.864746,298.405975 333.224396,298.467316 
	C337.599152,287.571045 341.707336,277.338715 346.171936,266.983765 
M350.910309,286.109100 
	C350.870392,283.795349 350.830444,281.481598 350.790527,279.167847 
	C350.247040,279.150574 349.703583,279.133331 349.160095,279.116058 
	C348.387817,281.217926 347.615540,283.319794 346.704590,285.799072 
	C348.236267,285.950623 349.187805,286.044769 350.910309,286.109100 
z"/>
<path fill="#68139D" opacity="1.000000" stroke="none" 
	d="
M324.598053,212.774292 
	C348.116730,206.494568 369.696472,196.500168 390.907562,185.579788 
	C367.407013,205.311981 339.720703,216.203552 310.738495,224.843872 
	C310.196167,217.625763 311.185089,216.204758 317.439056,214.609360 
	C319.694611,214.033951 321.950836,213.461182 324.598053,212.774292 
z"/>
<path fill="#EDECEE" opacity="1.000000" stroke="none" 
	d="
M287.816376,289.885498 
	C287.816193,284.423187 287.816193,279.443542 287.816193,274.035278 
	C284.589447,273.828979 281.535583,273.633698 278.244965,273.423309 
	C278.244965,271.236725 278.244965,269.319794 278.244965,267.090942 
	C287.453400,267.090942 296.500305,267.090942 305.760742,267.090942 
	C305.760742,269.216003 305.760742,271.160706 305.760742,273.502380 
	C302.518219,273.648010 299.435944,273.786438 296.024597,273.939667 
	C296.024597,282.231110 296.024597,290.167969 296.024597,298.372742 
	C293.264130,298.372742 290.851776,298.372742 287.816559,298.372742 
	C287.816559,295.594452 287.816559,292.981323 287.816376,289.885498 
z"/>
<path fill="#C180EA" opacity="1.000000" stroke="none" 
	d="
M223.957153,235.190689 
	C213.594238,235.128769 203.231323,235.066864 192.394653,235.012085 
	C192.861160,230.573166 193.801453,226.127106 195.301392,221.339432 
	C205.988617,220.998276 216.116165,220.998734 226.292816,221.421722 
	C225.546967,226.293060 224.752060,230.741882 223.957153,235.190689 
z"/>
<path fill="#B662EA" opacity="1.000000" stroke="none" 
	d="
M201.038498,197.019348 
	C210.813187,197.027603 220.587891,197.035843 230.892014,197.469727 
	C230.534790,201.667175 229.648132,205.438980 228.247040,209.162247 
	C217.498901,209.409256 207.265182,209.704819 197.031464,210.000397 
	C197.996765,206.213730 198.962067,202.427063 200.197601,198.193146 
	C200.716858,197.549911 200.907089,197.307739 201.038498,197.019348 
z"/>
<path fill="#BD72EC" opacity="1.000000" stroke="none" 
	d="
M196.907074,210.359619 
	C207.265182,209.704819 217.498901,209.409256 228.270920,209.581833 
	C227.954041,213.699707 227.098877,217.349457 226.243713,220.999207 
	C216.116165,220.998734 205.988617,220.998276 195.386383,220.997574 
	C195.535385,217.571167 196.159042,214.145004 196.907074,210.359619 
z"/>
<path fill="#A658D7" opacity="1.000000" stroke="none" 
	d="
M214.133575,274.570496 
	C213.459854,279.774139 213.027420,285.023224 212.058411,290.171295 
	C210.418198,298.885223 210.275650,298.858429 201.601837,298.858429 
	C194.024216,298.858429 186.446609,298.858398 178.004532,298.858398 
	C180.167755,288.769196 182.169327,279.433960 184.549683,270.230103 
	C184.988617,270.906250 185.048782,271.450989 185.016663,272.385803 
	C184.601974,275.182617 184.279572,277.589417 183.709503,280.290222 
	C182.997864,283.454865 182.533890,286.325439 181.936615,290.020752 
	C188.669449,290.020752 194.761261,290.020782 200.853058,290.020782 
	C210.274826,290.020782 210.274826,290.020752 212.854980,280.595306 
	C213.313736,278.345764 213.723663,276.458130 214.133575,274.570496 
z"/>
<path fill="#B662EA" opacity="1.000000" stroke="none" 
	d="
M274.810760,198.381088 
	C276.625488,197.587509 278.424164,196.154251 280.257690,196.108185 
	C289.483063,195.876373 298.717560,196.006668 308.408417,196.009125 
	C308.799561,199.836670 308.731110,203.664917 308.065735,207.633209 
	C305.693542,207.515945 303.920258,207.053101 302.142731,207.036316 
	C293.723938,206.956833 285.304047,206.999161 276.745178,206.640793 
	C276.007477,203.649368 275.409119,201.015228 274.810760,198.381088 
z"/>
<path fill="#BD72EC" opacity="1.000000" stroke="none" 
	d="
M276.884521,206.998077 
	C285.304047,206.999161 293.723938,206.956833 302.142731,207.036316 
	C303.920258,207.053101 305.693542,207.515945 307.871338,207.945358 
	C308.290375,208.549225 308.306885,208.981003 307.962585,209.835083 
	C307.645905,210.808716 307.689941,211.360031 307.734009,211.911362 
	C307.090088,214.991898 306.446167,218.072418 305.526367,221.432098 
	C304.041199,220.188293 302.854980,217.372498 301.618896,217.350418 
	C293.064087,217.197662 284.498932,217.626556 275.493225,217.545319 
	C275.661102,213.813995 276.272827,210.406036 276.884521,206.998077 
z"/>
<path fill="#A948E5" opacity="1.000000" stroke="none" 
	d="
M178.965622,195.010864 
	C174.803833,185.507492 177.054901,176.618179 181.659805,168.011566 
	C183.217316,165.100571 185.065430,162.345062 186.874069,159.175125 
	C188.014038,157.854340 189.060684,156.876953 190.844406,155.211258 
	C186.105072,167.728485 184.736938,179.343781 189.849136,191.682236 
	C186.078461,193.239853 182.522049,194.125351 178.965622,195.010864 
z"/>
<path fill="#EDECEE" opacity="1.000000" stroke="none" 
	d="
M321.677185,298.621948 
	C319.610535,298.639618 317.970154,298.639618 315.522797,298.639618 
	C315.522797,293.240967 315.522797,288.167206 315.522797,283.093475 
	C315.522797,277.958496 315.522797,272.823517 315.522797,267.235870 
	C318.270996,267.235870 320.790833,267.235870 323.790497,267.235870 
	C323.790497,277.043579 323.825104,286.786041 323.717896,296.527008 
	C323.710175,297.225250 322.665833,297.912079 321.677185,298.621948 
z"/>
<path fill="#C180EA" opacity="1.000000" stroke="none" 
	d="
M185.108932,271.995758 
	C185.048782,271.450989 184.988617,270.906250 184.798981,269.970703 
	C184.854034,268.728821 185.038574,267.877655 185.667114,266.608826 
	C186.081299,265.834320 186.051437,265.477448 186.021576,265.120605 
	C186.055817,263.841248 186.090057,262.561890 186.478455,261.110718 
	C188.773788,261.624176 190.698044,262.838318 192.659058,262.900879 
	C200.136200,263.139404 207.625198,263.006622 215.548660,263.412415 
	C215.989944,264.847351 215.992325,265.882416 215.994720,266.917450 
	C215.705399,268.366760 215.416061,269.816071 214.550171,271.632690 
	C204.352066,271.998566 194.730499,271.997162 185.108932,271.995758 
z"/>
<path fill="#BD72EC" opacity="1.000000" stroke="none" 
	d="
M185.016663,272.385803 
	C194.730499,271.997162 204.352066,271.998566 214.435577,271.999237 
	C214.896149,272.641022 214.894775,273.283569 214.513489,274.248291 
	C213.723663,276.458130 213.313736,278.345764 212.405884,280.611725 
	C206.131592,280.995392 200.351929,281.120514 194.580078,280.961884 
	C191.032928,280.864380 187.497726,280.332825 183.957153,279.996216 
	C184.279572,277.589417 184.601974,275.182617 185.016663,272.385803 
z"/>
<path fill="#AF53E7" opacity="1.000000" stroke="none" 
	d="
M179.018036,195.360504 
	C182.522049,194.125351 186.078461,193.239853 189.876617,192.061157 
	C196.027878,197.041458 193.762589,203.229797 191.864410,209.654495 
	C191.484299,209.768097 191.317261,209.587479 191.120682,208.860336 
	C191.747696,205.143127 192.395584,201.980469 193.043472,198.817825 
	C192.537384,198.386749 192.031311,197.955673 191.525223,197.524597 
	C188.985504,199.390320 186.445801,201.256042 183.906082,203.121750 
	C182.294205,200.651215 180.682327,198.180695 179.018036,195.360504 
z"/>
<path fill="#A658D7" opacity="1.000000" stroke="none" 
	d="
M216.175262,266.643402 
	C215.992325,265.882416 215.989944,264.847351 216.020538,263.423859 
	C216.505585,262.691345 216.957626,262.347321 217.702881,262.021667 
	C217.449326,263.483154 216.902573,264.926239 216.175262,266.643402 
z"/>
<path fill="#A948E5" opacity="1.000000" stroke="none" 
	d="
M200.943665,196.829529 
	C200.907089,197.307739 200.716858,197.549911 200.263733,197.857254 
	C199.997742,197.428955 199.935822,196.889252 200.052368,196.211792 
	C200.492432,196.201843 200.698425,196.390411 200.943665,196.829529 
z"/>
<path fill="#B662EA" opacity="1.000000" stroke="none" 
	d="
M307.895935,211.767975 
	C307.689941,211.360031 307.645905,210.808716 307.807434,210.126343 
	C308.028015,210.538391 308.042969,211.081497 307.895935,211.767975 
z"/>
<path fill="#A658D7" opacity="1.000000" stroke="none" 
	d="
M185.903442,265.278870 
	C186.051437,265.477448 186.081299,265.834320 186.031311,266.347778 
	C185.896072,266.148621 185.840698,265.792877 185.903442,265.278870 
z"/>
<path fill="#A948E5" opacity="1.000000" stroke="none" 
	d="
M201.124390,191.298920 
	C201.319672,191.676651 201.325302,192.240051 201.152649,192.899811 
	C200.961166,192.492310 200.947968,191.988464 201.124390,191.298920 
z"/>
<path fill="#15061E" opacity="1.000000" stroke="none" 
	d="
M276.745178,206.640793 
	C276.272827,210.406036 275.661102,213.813995 275.088745,217.616119 
	C272.428589,224.658554 270.061798,231.565384 262.195038,234.625000 
	C249.616043,234.991028 237.258011,235.102371 224.428558,235.202209 
	C224.752060,230.741882 225.546967,226.293060 226.292801,221.421722 
	C227.098877,217.349457 227.954041,213.699707 228.785339,209.630386 
	C229.648132,205.438980 230.534790,201.667175 231.381592,197.493134 
	C232.899826,196.201752 234.439758,194.582336 236.018967,194.543106 
	C245.591507,194.305328 255.187164,194.134583 264.743591,194.595184 
	C267.939850,194.749252 271.043610,196.823471 274.500183,198.200531 
	C275.409119,201.015228 276.007477,203.649368 276.745178,206.640793 
M231.190460,223.498856 
	C230.778961,225.674225 230.367477,227.849609 229.911469,230.260284 
	C239.905060,230.260284 249.171219,230.434372 258.425690,230.181305 
	C262.582092,230.067642 265.251892,227.356140 267.080414,222.875793 
	C265.328766,222.976501 264.103394,223.046951 261.973450,223.044632 
	C253.434540,222.088440 244.900345,221.086105 236.353226,220.210068 
	C234.339157,220.003647 231.282547,218.392059 231.190460,223.498856 
z"/>
<path fill="#BD72EC" opacity="1.000000" stroke="none" 
	d="
M184.078979,203.402222 
	C186.445801,201.256042 188.985504,199.390320 191.525223,197.524597 
	C192.031311,197.955673 192.537384,198.386749 193.043472,198.817825 
	C192.395584,201.980469 191.747696,205.143127 191.025421,208.702881 
	C188.717987,207.294235 186.484940,205.488480 184.078979,203.402222 
z"/>
<path fill="#15061E" opacity="1.000000" stroke="none" 
	d="
M259.679321,285.414795 
	C257.978546,291.003326 255.213074,293.097839 250.741135,292.537445 
	C246.232574,291.972504 243.945877,289.141846 243.668701,283.782623 
	C243.247879,275.645355 247.845108,271.404816 254.822464,273.761230 
	C260.374451,275.636322 259.900757,280.468018 259.679321,285.414795 
z"/>
<path fill="#15061E" opacity="1.000000" stroke="none" 
	d="
M350.524841,286.124023 
	C349.187805,286.044769 348.236267,285.950623 346.704590,285.799072 
	C347.615540,283.319794 348.387817,281.217926 349.160095,279.116058 
	C349.703583,279.133331 350.247040,279.150574 350.790527,279.167847 
	C350.830444,281.481598 350.870392,283.795349 350.524841,286.124023 
z"/>
<path fill="#B662EA" opacity="1.000000" stroke="none" 
	d="
M183.709503,280.290222 
	C187.497726,280.332825 191.032928,280.864380 194.580078,280.961884 
	C200.351929,281.120514 206.131592,280.995392 212.357056,280.973633 
	C210.274826,290.020752 210.274826,290.020782 200.853058,290.020782 
	C194.761261,290.020782 188.669449,290.020752 181.936615,290.020752 
	C182.533890,286.325439 182.997864,283.454865 183.709503,280.290222 
z"/>
<path fill="#7B1AB7" opacity="1.000000" stroke="none" 
	d="
M262.878052,223.117401 
	C264.103394,223.046951 265.328766,222.976501 267.080414,222.875793 
	C265.251892,227.356140 262.582092,230.067642 258.425690,230.181305 
	C249.171219,230.434372 239.905060,230.260284 229.911469,230.260284 
	C230.367477,227.849609 230.778961,225.674225 231.800537,223.178665 
	C242.566437,222.944794 252.722244,223.031097 262.878052,223.117401 
z"/>
<path fill="#C180EA" opacity="1.000000" stroke="none" 
	d="
M262.425751,223.081024 
	C252.722244,223.031097 242.566437,222.944794 232.013702,222.810410 
	C231.282547,218.392059 234.339157,220.003647 236.353226,220.210068 
	C244.900345,221.086105 253.434540,222.088440 262.425751,223.081024 
z"/>
</svg>